<!DOCTYPE svg PUBLIC "-//W3C//DTD SVG 20010904//EN" "http://www.w3.org/TR/2001/REC-SVG-20010904/DTD/svg10.dtd">
<svg version="1.0" xmlns="http://www.w3.org/2000/svg" width="800px" height="600px" viewBox="0 0 8000 6000" preserveAspectRatio="xMidYMid meet">
<g id="layer101" fill="#ff0101" stroke="none">
 <path d="M3730 4325 c-362 -52 -692 -200 -975 -437 -331 -276 -559 -659 -653 -1098 -25 -117 -26 -141 -26 -385 0 -244 1 -268 26 -385 83 -387 259 -713 532 -986 273 -273 594 -446 983 -531 121 -26 142 -27 388 -27 245 -1 267 1 385 26 775 167 1353 744 1516 1513 32 148 44 464 24 622 -54 440 -242 827 -554 1139 -303 303 -675 489 -1097 549 -126 18 -428 18 -549 0z"/>
 </g>
<g id="layer102" fill="#fffefe" stroke="none">
 <path d="M3730 4325 c-362 -52 -692 -200 -975 -437 -331 -276 -559 -659 -653 -1098 -25 -117 -26 -141 -26 -385 0 -244 1 -268 26 -385 83 -387 259 -713 532 -986 273 -273 594 -446 983 -531 121 -26 142 -27 388 -27 245 -1 267 1 385 26 775 167 1353 744 1516 1513 32 148 44 464 24 622 -54 440 -242 827 -554 1139 -303 303 -675 489 -1097 549 -126 18 -428 18 -549 0z m617 -214 c348 -73 655 -242 899 -492 243 -251 394 -535 466 -877 20 -93 23 -136 23 -337 0 -201 -3 -244 -23 -337 -72 -342 -223 -626 -466 -877 -516 -530 -1314 -676 -1974 -361 -198 95 -324 182 -481 334 -579 563 -692 1443 -274 2139 134 225 364 454 590 590 167 101 373 181 556 217 151 29 145 28 372 25 169 -2 230 -6 312 -24z"/>
 <path d="M3820 4004 c-703 -88 -1247 -596 -1397 -1304 -25 -121 -25 -469 0 -590 124 -586 522 -1045 1062 -1226 199 -66 275 -78 520 -78 190 0 234 3 319 22 647 143 1112 609 1258 1258 19 86 22 127 22 319 0 188 -4 234 -22 319 -111 500 -419 899 -870 1125 -103 52 -257 104 -388 132 -76 16 -142 22 -284 24 -102 2 -201 1 -220 -1z m377 -145 c43 -5 122 -22 175 -36 l97 -25 5 -72 c3 -39 13 -208 21 -376 8 -168 17 -335 20 -372 4 -58 3 -68 -11 -68 -9 0 -46 -14 -83 -32 -91 -43 -183 -136 -199 -200 -28 -110 -2 -563 59 -1035 l12 -93 43 0 44 0 2 493 3 492 43 0 43 0 -1 -492 0 -493 50 0 50 0 2 493 3 492 43 3 42 3 0 -495 0 -496 55 0 55 0 0 496 0 495 43 -3 42 -3 3 -492 2 -493 34 0 33 0 21 183 c55 463 75 820 52 929 -12 57 -20 69 -76 125 -60 61 -165 123 -206 123 -10 0 -18 6 -18 13 0 6 9 174 20 372 11 198 20 363 20 368 0 14 57 -22 158 -97 279 -211 477 -527 547 -877 25 -122 30 -365 11 -495 -107 -725 -719 -1254 -1451 -1254 -322 0 -618 97 -873 287 -324 241 -530 593 -583 998 -15 113 -7 352 16 460 67 323 250 636 487 832 111 91 284 203 316 203 11 0 56 -871 45 -880 -4 -4 -31 -15 -59 -24 -116 -38 -200 -119 -270 -261 -144 -291 -99 -637 111 -851 206 -210 448 -202 651 19 198 217 235 546 92 837 -69 142 -167 226 -321 274 -15 5 -16 14 -12 73 8 92 45 824 45 878 l0 42 58 12 c151 31 348 39 489 20z m-822 -1150 c4 -6 -2 -20 -13 -32 -45 -50 -93 -138 -128 -237 -37 -102 -38 -109 -37 -235 1 -88 6 -146 16 -179 17 -52 15 -66 -8 -66 -20 0 -81 133 -95 206 -40 206 44 427 199 526 50 31 57 33 66 17z"/>
 </g>

</svg>