<!DOCTYPE svg PUBLIC "-//W3C//DTD SVG 20010904//EN" "http://www.w3.org/TR/2001/REC-SVG-20010904/DTD/svg10.dtd">
<svg version="1.0" xmlns="http://www.w3.org/2000/svg" width="800px" height="600px" viewBox="0 0 8000 6000" preserveAspectRatio="xMidYMid meet">
<g id="layer101" fill="#ff0000" stroke="none">
 <path d="M3465 5360 c-27 -10 -63 -25 -80 -34 -16 -9 -34 -16 -40 -16 -15 0 -93 -71 -115 -105 -38 -58 -18 -108 49 -121 46 -10 76 -67 96 -184 9 -52 22 -125 30 -161 23 -102 20 -147 -9 -160 -50 -23 -58 -87 -16 -127 25 -23 170 -60 271 -68 95 -8 119 2 119 52 l0 36 35 -21 c138 -81 275 -53 364 76 74 108 91 257 44 384 -36 97 -121 187 -203 214 -76 26 -152 24 -225 -8 -66 -28 -75 -25 -75 31 0 27 9 43 45 78 55 53 58 83 14 125 -31 29 -33 29 -143 28 -81 0 -125 -5 -161 -19z m370 -446 c8 -4 22 -21 30 -40 50 -119 8 -283 -69 -272 -31 4 -45 44 -63 174 -15 112 -15 118 3 131 19 14 71 17 99 7z"/>
 <path d="M4522 5070 c-73 -26 -130 -67 -174 -125 -48 -63 -61 -108 -62 -217 0 -101 22 -161 90 -243 54 -66 104 -99 183 -125 138 -44 255 -17 351 81 46 46 60 68 66 101 9 53 6 90 -9 104 -18 16 -161 64 -222 74 -96 16 -135 30 -135 48 1 28 25 51 71 68 76 27 148 5 220 -67 42 -42 50 -45 80 -29 31 17 49 63 42 105 -5 30 -21 53 -68 101 -125 124 -295 173 -433 124z m141 -481 c31 -8 37 -14 37 -38 0 -37 -19 -60 -56 -67 -37 -7 -69 18 -80 61 -13 54 17 67 99 44z"/>
 <path d="M2558 5047 c-191 -69 -363 -280 -303 -371 15 -22 25 -26 65 -26 43 0 52 -4 77 -35 31 -38 184 -331 183 -353 0 -7 -12 -29 -26 -47 -31 -41 -26 -68 19 -96 38 -23 82 -24 201 -4 85 14 176 48 176 65 0 5 -4 20 -9 34 l-10 25 87 -6 c80 -5 91 -3 136 22 52 27 76 53 114 119 19 33 25 61 29 146 5 99 4 109 -23 179 -54 138 -178 231 -307 231 -75 0 -119 -15 -179 -62 -29 -23 -59 -45 -65 -51 -10 -7 -17 0 -27 24 -15 35 -8 71 23 119 31 47 3 97 -60 106 -21 3 -59 -4 -101 -19z m340 -392 c28 -24 36 -38 61 -116 16 -52 14 -119 -6 -141 -40 -45 -96 -2 -132 104 -10 30 -26 69 -35 86 -20 38 -12 60 28 78 43 18 50 17 84 -11z"/>
 <path d="M5273 4819 c-71 -35 -129 -123 -159 -237 -12 -46 -69 -188 -80 -201 -2 -2 -21 4 -44 13 -53 21 -59 20 -69 -6 -23 -62 -23 -64 32 -134 29 -38 77 -107 107 -152 40 -61 65 -89 93 -104 22 -11 40 -18 41 -16 2 2 18 30 36 63 18 33 34 62 36 63 1 2 33 -14 71 -37 l68 -40 28 32 c33 38 44 74 30 96 -9 15 -101 75 -127 84 -11 4 95 239 122 270 28 31 63 21 108 -30 41 -46 42 -47 69 -33 40 22 56 58 44 108 -22 100 -101 194 -209 250 -76 39 -135 42 -197 11z"/>
 <path d="M5739 4559 c-18 -18 -20 -28 -14 -68 4 -25 7 -56 7 -69 0 -34 -38 -116 -84 -184 -39 -57 -66 -80 -91 -77 -31 4 -48 -3 -63 -25 -14 -23 -14 -28 2 -63 35 -76 176 -243 205 -243 18 0 54 39 109 119 91 133 173 237 197 249 14 8 35 11 48 8 30 -8 65 21 66 54 5 86 -133 234 -283 303 -48 23 -74 21 -99 -4z"/>
 <path d="M2171 4503 c-73 -44 -260 -222 -284 -272 -20 -41 -21 -61 -5 -97 12 -25 15 -26 64 -20 45 5 53 3 58 -12 7 -20 -20 -82 -35 -82 -5 0 -9 -5 -9 -11 0 -7 -6 -17 -13 -23 -8 -6 -38 -39 -67 -73 -36 -43 -60 -63 -75 -63 -29 0 -47 21 -35 40 6 8 10 32 10 52 0 28 -6 41 -23 53 -21 13 -28 14 -58 1 -29 -12 -89 -68 -89 -83 0 -2 -12 -20 -27 -39 -38 -50 -73 -131 -73 -168 0 -30 30 -76 49 -76 5 0 21 10 37 23 52 40 153 25 374 -55 30 -11 64 -25 75 -31 11 -6 32 -17 48 -25 15 -7 43 -29 63 -47 53 -50 80 -65 117 -65 40 0 77 26 108 77 34 55 31 191 -9 383 -34 162 -49 260 -61 400 -8 85 -7 98 10 121 30 44 33 72 9 102 -31 40 -79 37 -159 -10z m-68 -677 c9 -35 17 -79 17 -96 0 -30 -2 -32 -26 -26 -15 4 -48 20 -75 35 l-49 28 22 29 c29 39 81 94 88 94 3 0 14 -29 23 -64z"/>
 <path d="M4411 4312 c-17 -32 -13 -67 10 -88 33 -30 42 -53 27 -71 -10 -13 -8 -19 17 -39 75 -60 235 -48 235 16 0 19 -30 72 -62 110 -27 33 -121 81 -168 87 -41 5 -49 3 -59 -15z"/>
 <path d="M3825 4144 c-318 -34 -673 -180 -905 -372 -348 -287 -551 -628 -637 -1067 -25 -127 -25 -473 0 -600 86 -439 289 -780 637 -1067 197 -163 481 -293 762 -350 96 -19 145 -23 323 -23 238 0 348 17 543 81 548 179 980 629 1136 1181 51 179 60 254 60 478 0 224 -9 299 -60 478 -135 477 -478 883 -929 1098 -231 111 -441 159 -710 164 -99 2 -198 1 -220 -1z m295 -144 c218 -17 405 -68 595 -162 319 -160 560 -400 721 -720 360 -715 126 -1597 -541 -2042 -481 -321 -1090 -360 -1602 -102 -512 257 -844 753 -882 1316 -45 653 296 1252 879 1545 185 93 383 149 577 164 59 4 110 9 113 10 3 0 66 -4 140 -9z"/>
 <path d="M3850 3870 c-30 -4 -87 -14 -127 -20 l-72 -13 -5 -41 c-3 -22 -14 -234 -26 -471 -11 -236 -22 -443 -24 -459 -3 -30 -4 -29 105 -70 99 -36 214 -174 268 -320 24 -65 51 -223 51 -299 0 -66 -25 -181 -56 -257 -73 -181 -247 -336 -401 -359 -220 -32 -461 173 -533 455 -14 52 -20 110 -20 178 1 286 127 523 322 604 42 18 82 32 88 32 7 0 9 27 5 88 -9 155 -24 443 -30 587 -7 180 -13 225 -29 225 -24 0 -189 -105 -289 -185 -118 -94 -223 -211 -311 -345 -96 -149 -151 -274 -191 -442 -110 -460 -9 -918 284 -1279 218 -270 545 -464 884 -526 127 -23 399 -23 524 0 168 31 393 118 527 205 70 45 219 167 272 223 332 348 473 817 389 1294 -45 257 -184 532 -369 732 -98 105 -301 263 -339 263 -11 0 -16 -30 -21 -132 -9 -179 -25 -489 -30 -566 -4 -60 -3 -62 23 -69 54 -13 146 -67 198 -115 72 -69 83 -108 83 -302 0 -168 -18 -405 -55 -719 -14 -114 -25 -210 -25 -212 0 -3 -14 -5 -30 -5 l-30 0 2 495 3 495 -52 0 -53 0 0 -495 0 -495 -45 0 -45 0 0 495 0 495 -55 0 -55 0 0 -495 0 -495 -40 0 -40 0 0 495 0 495 -50 0 -50 0 0 -495 0 -495 -40 0 c-22 0 -40 1 -40 3 0 1 -7 56 -15 122 -60 476 -83 899 -56 1002 21 77 124 171 231 211 l55 20 -2 149 c-1 81 -7 227 -12 323 -6 96 -13 230 -17 297 l-7 123 -63 20 c-154 47 -426 72 -564 50z"/>
 <path d="M3309 2702 c-126 -81 -219 -257 -219 -417 0 -87 30 -209 67 -275 49 -87 85 -77 64 18 -7 31 -15 105 -18 164 -5 97 -3 114 22 195 36 116 69 186 122 256 23 31 43 61 43 66 0 7 -23 21 -34 21 -1 0 -22 -13 -47 -28z"/>
 <path d="M6209 4106 c-62 -22 -86 -45 -227 -220 -29 -36 -59 -66 -65 -66 -7 0 -25 14 -41 30 -27 27 -31 29 -50 16 -30 -19 -41 -68 -28 -114 15 -50 49 -198 57 -244 5 -36 47 -98 65 -98 5 0 26 18 48 40 21 22 43 40 48 40 5 0 27 -25 48 -55 42 -58 58 -65 92 -37 40 33 47 59 27 95 -10 17 -21 34 -24 37 -3 3 -14 19 -24 37 l-19 32 92 91 c105 102 132 113 157 58 7 -18 16 -45 19 -60 11 -50 66 -47 93 5 56 108 -28 337 -145 396 -55 27 -83 31 -123 17z"/>
 <path d="M5405 3935 c-58 -57 -4 -172 112 -240 53 -32 64 -31 98 2 24 24 26 33 21 71 -10 76 -121 192 -183 192 -13 0 -35 -11 -48 -25z"/>
 </g>

</svg>