<svg id="icons" enable-background="new 0 0 64 64" height="512" viewBox="0 0 64 64" width="512" xmlns="http://www.w3.org/2000/svg"><path d="m27 11c0-2.206-1.794-4-4-4s-4 1.794-4 4 1.794 4 4 4 4-1.794 4-4zm-6 0c0-1.103.897-2 2-2s2 .897 2 2-.897 2-2 2-2-.897-2-2z"/><path d="m23.03 52.999c.552 0 1-.447 1-1s-.448-1-1-1h-.01c-.552 0-.994.447-.994 1s.452 1 1.004 1z"/><path d="m46.999 44.002c-.553 0-1 .447-1 1v.999h-.502v-.999c0-.553-.447-1-1-1s-1 .447-1 1v.999h-.499v-.999c0-.553-.447-1-1-1s-1 .447-1 1v3.999c0 .002-.001.003-.001.005 0 1.102.896 1.997 1.997 1.997h.504v7.002c0 .553.447 1 1 1s1-.447 1-1v-7.002h.489c.004 0 .007.002.01.002 1.103 0 2.001-.897 2.002-2v-.001-4.002c0-.553-.447-1-1-1zm-1 3.999v.994c0 .003-.002.005-.002.008h-2.999v-1.002z"/><path d="m50.004 44c-.002 0-.004-.001-.006-.001-.001 0-.001 0-.002 0s-.003 0-.004 0c-.553 0-1 .447-1 1 0 .011.006.019.006.029v12.977c0 .553.447 1 1 1s1-.447 1-1v-5.006h2c.553 0 1-.447 1-1v-3.994c0-2.205-1.791-3.998-3.994-4.005zm.994 2.279c.595.349 1 .987 1 1.726v2.994h-1z"/><path d="m63 39h-3.996v-3.498c0-3.585-2.916-6.501-6.5-6.501-.699 0-1.371.114-2.002.319-.631-.206-1.303-.32-2.002-.32-3.584 0-6.5 2.917-6.5 6.501v3.499h-6.002c-.553 0-1 .447-1 1v5.001h-3.998v-4.165c4.774-2.771 8-7.928 8-13.835v-4.001h1c.127 0 .252-.027.371-.075.051-.02.09-.055.136-.083.056-.033.115-.056.165-.101.007-.006.009-.014.015-.021.054-.051.089-.115.131-.176.031-.048.072-.09.095-.141.021-.047.023-.1.037-.15.02-.076.044-.151.046-.23-.001-.008.004-.015.004-.023 0-.049-.021-.091-.027-.138-.011-.075-.018-.148-.045-.22-.026-.069-.07-.126-.111-.187-.027-.042-.041-.088-.075-.126-.055-.061-.555-.591-1.741-1.261v-2.068c0-8.485-6.645-15.429-15-15.949v-.051c0-.552-.447-1-1-1s-1 .448-1 1v.051c-8.356.52-15.001 7.464-15.001 15.949v2.067c-1.187.67-1.687 1.2-1.741 1.261-.035.039-.049.086-.076.128-.04.06-.084.116-.11.185-.024.064-.029.131-.04.199-.01.054-.033.103-.033.16 0 .009.005.017.005.026.002.046.02.088.027.134.06.356.292.648.622.771.015.005.03.004.045.009.097.03.195.06.301.06h1v4.001c0 5.907 3.226 11.063 8 13.835v4.166l-5.998-.001c-4.964 0-9.002 4.038-9.002 9.002l.001 6.997c0 1.103.897 2 2 2h33.997 23 4.002c.553 0 1-.447 1-1v-22c0-.553-.447-1-1-1zm-5.996-3.498v3.498h-2.004v-3.498c0-1.711-.669-3.264-1.753-4.426 2.127.357 3.757 2.198 3.757 4.426zm-9 3.498v-3.498c0-1.76 1.023-3.271 2.498-4.01 1.475.74 2.498 2.25 2.498 4.01v3.498zm-4.004-3.498c0-2.228 1.63-4.069 3.757-4.426-1.084 1.162-1.753 2.715-1.753 4.426v3.498h-2.004zm-35-17.502c0-7.72 6.28-14 14-14s14 6.28 14 14v1.125c-2.702-1.069-7.111-2.125-14-2.125s-11.298 1.056-14 2.125zm27.285 3h-26.568c2.436-.971 6.582-2 13.283-2 6.705 0 10.852 1.031 13.285 2zm-27.285 6.001v-4.001h28v4.001c0 7.72-6.28 14-14 14s-14-6.28-14-14zm14 16c2.122 0 4.146-.425 6-1.178v3.561l-3.076 1.536-2.608-.867c-.04-.013-.08-.007-.12-.015-.064-.013-.128-.022-.195-.023-.067.001-.131.011-.195.023-.04.008-.08.002-.12.015l-2.608.867-3.078-1.536v-3.561c1.854.753 3.878 1.178 6 1.178zm-13.998 4 6.763.001 3.789 1.892c.016.008.033.005.05.012.124.055.255.093.394.094h.002.001c.002 0 .004-.001.006-.001.098-.001.193-.018.286-.046.008-.003.016-.001.023-.004l2.684-.893 2.685.893c.008.003.016.001.023.004.093.028.188.045.286.046.002 0 .004.001.006.001h.001.002c.139-.001.27-.039.394-.094.017-.007.034-.004.05-.012l3.791-1.893h4.761v13.999h-32.998l-.001-6.997c0-3.861 3.141-7.002 7.002-7.002zm27.996-6.001h21v20h-21zm25.002 20h-2.002v-20h2.002z"/></svg>